<?xml version="1.0" encoding="utf-8"?>
<!-- Generator: Adobe Illustrator 26.2.1, SVG Export Plug-In . SVG Version: 6.00 Build 0)  -->
<svg version="1.1" id="Layer_1" xmlns="http://www.w3.org/2000/svg" xmlns:xlink="http://www.w3.org/1999/xlink" x="0px" y="0px"
	 viewBox="0 0 523.8 72" style="enable-background:new 0 0 523.8 72;" xml:space="preserve">
<style type="text/css">
	.st0{fill:#FFFFFF;}
</style>
<g>
	<g>
		<path class="st0" d="M70.2,57.3l-12.7-9.8l0.6-0.8l7.7,5.9c1.2,0.9,3,0.7,3.9-0.5c0.9-1.2,0.7-3-0.5-3.9l-10.3-8
			c0,0-1.7-1.3-3.7-2.8l12.3-4.9c1.4-0.7,2-2.3,1.3-3.7c-0.7-1.4-2.3-2-3.7-1.3l-6.1,2L70.2,15c0.9-1.2,0.7-3-0.5-3.9
			c-1.2-0.9-3-0.7-3.9,0.5l-8.5,11L56.5,22l12-15.6c0.9-1.2,0.7-3-0.5-3.9c-1.2-0.9-3-0.7-3.9,0.5l-12,15.6L51.4,18l9.8-12.7
			c0.9-1.2,0.7-3-0.5-3.9c-1.2-0.9-3-0.7-3.9,0.5L47,14.6L46.2,14l5.9-7.7c0.9-1.2,0.7-3-0.5-3.9c-1.2-0.9-3-0.7-3.9,0.5l-8,10.3
			c0,0-1.4,1.8-2.8,3.8l-0.2,0L31.8,4.8c-0.7-1.4-2.3-2-3.7-1.3c-1.4,0.7-2,2.3-1.3,3.7l2,6.1L14.1,2c-1.2-0.9-3-0.7-3.9,0.5
			c-0.9,1.2-0.7,3,0.5,3.9l11,8.5l-0.6,0.8L5.6,3.7c-1.2-0.9-3-0.7-3.9,0.5C0.8,5.4,1,7.1,2.2,8.1l15.6,12l-0.6,0.8L4.5,11
			c-1.2-0.9-3-0.7-3.9,0.5c-0.9,1.2-0.7,3,0.5,3.9l12.7,9.8L13.2,26l-7.7-5.9c-1.2-0.9-3-0.7-3.9,0.5c-0.9,1.2-0.7,3,0.5,3.9l10.3,8
			c0,0,1.7,1.3,3.6,2.7l0,0L3.9,40.1c-1.4,0.7-2,2.3-1.3,3.7c0.7,1.4,2.3,2,3.7,1.3l6.1-2L1.1,57.8c-0.9,1.2-0.7,3,0.5,3.9
			c1.2,0.9,3,0.7,3.9-0.5l8.5-11l0.8,0.6l-12,15.6c-0.9,1.2-0.7,3,0.5,3.9c1.2,0.9,3,0.7,3.9-0.5l12-15.6l0.8,0.6l-9.8,12.7
			c-0.9,1.2-0.7,3,0.5,3.9c1.2,0.9,3,0.7,3.9-0.5l9.8-12.7l0.8,0.6l-5.9,7.7c-0.9,1.2-0.7,3,0.5,3.9c1.2,0.9,3,0.7,3.9-0.5l8-10.3
			c0,0,1.4-1.9,2.9-3.9l5,12.4c0.7,1.4,2.3,2,3.7,1.3c1.4-0.7,2-2.3,1.3-3.7l-2-6.1l14.7,11.3c1.2,0.9,3,0.7,3.9-0.5
			c0.9-1.2,0.7-3-0.5-3.9l-11-8.5l0.6-0.8l15.6,12c1.2,0.9,3,0.7,3.9-0.5c0.9-1.2,0.7-3-0.5-3.9l-15.6-12l0.6-0.8l12.7,9.8
			c1.2,0.9,3,0.7,3.9-0.5C71.6,60,71.4,58.3,70.2,57.3z M40.3,46.4c0.1-0.3,0.1-0.7,0.2-1c0-0.1,0-0.2,0-0.3c0-0.4,0.1-0.7,0.1-1.1
			c0,0,0-0.1,0-0.1c0-0.4,0-0.8,0-1.2c0-0.1,0-0.2,0-0.3c0-0.3-0.1-0.6-0.1-0.9c0-0.1,0-0.1,0-0.2c0.4,0.1,0.8,0.2,1.3,0.2
			c0,0,0,0,0,0c0.5,0.1,1.1,0.1,1.7,0.1c0.2,0,0.5,0,0.7,0c0.1,0,0.2,0,0.3,0c0.3,0,0.6-0.1,0.9-0.1c0.1,0,0.2,0,0.3,0
			c0.5,0.9,0.8,1.8,1,2.8c0.1,0.2,0.2,1.2,0.8,5.2l-7.2-3C40.3,46.5,40.3,46.5,40.3,46.4z M39.4,45.4c-0.1,0.4-0.1,0.8-0.3,1.2
			c-0.3,1.1-0.8,2.2-1.4,3.2c-0.1,0.1-0.6,0.9-3.1,4.3l-3.1-7.6c-0.1-0.5-0.2-0.9-0.2-1.4c0-0.1,0-0.2,0-0.3c0-0.4-0.1-0.8,0-1.2
			c0-0.1,0-0.2,0-0.3c0-0.4,0-0.8,0.1-1.2c0-0.1,0-0.1,0-0.2c0.1-0.4,0.1-0.7,0.2-1c1.4-0.4,2.8-1,4-1.8c0,0,0,0,0,0
			c1.1,0.9,2.3,1.5,3.6,1.9c0.1,0.4,0.1,0.7,0.2,1.1c0,0.1,0,0.2,0,0.2c0,0.4,0,0.7,0,1.1c0,0.1,0,0.2,0,0.3c0,0.4,0,0.8-0.1,1.2
			C39.4,45.2,39.4,45.3,39.4,45.4z M30.4,46.5c-0.9,0.5-1.9,0.8-3,1.1c-0.1,0-0.9,0.2-5.3,0.8l3.1-7.3c1,0.2,2,0.4,3.1,0.4
			c0.7,0,1.4-0.1,2.1-0.2c-0.1,0.3-0.1,0.6-0.1,0.9c0,0.1,0,0.3-0.1,0.4c0,0.1,0,0.3,0,0.5c0,0.3,0,0.6,0,1c0,0.1,0,0.1,0,0.2
			c0,0.4,0,0.8,0.1,1.2c0,0,0,0.1,0,0.1C30.3,45.9,30.3,46.2,30.4,46.5z M31,26c-0.1,0.3-0.1,0.6-0.2,1c0,0.1,0,0.2,0,0.3
			c0,0.3-0.1,0.7-0.1,1c0,0.1,0,0.2,0,0.3c0,0.3,0,0.6,0,0.9c0,0.2,0,0.3,0,0.5c0,0.2,0,0.5,0.1,0.7c0,0.1,0,0.2,0,0.3
			c-0.5-0.1-1-0.2-1.4-0.2c0,0,0,0,0,0c-0.5-0.1-1-0.1-1.5-0.1c-0.3,0-0.6,0-0.9,0.1c-0.1,0-0.1,0-0.2,0c-0.3,0-0.6,0.1-0.9,0.1
			c-0.1,0-0.1,0-0.2,0c-0.5-0.9-0.8-1.9-1-2.9c0-0.1-0.2-0.8-0.8-5.2l7.2,3.1C31,25.9,31,26,31,26z M31.9,27.4c0-0.1,0-0.3,0.1-0.4
			c0.1-0.4,0.2-0.8,0.3-1.2c0.3-1.1,0.8-2.2,1.4-3.2c0-0.1,0.4-0.7,3.1-4.2l2.8,7.1l0,0l0.2,0.5l0,0c0.1,0.5,0.2,0.9,0.2,1.4
			c0,0.1,0,0.2,0,0.3c0,0.4,0,0.8,0,1.2c0,0.1,0,0.2,0,0.2c0,0.4-0.1,0.8-0.1,1.2c0,0.1,0,0.1,0,0.2c-0.1,0.4-0.1,0.7-0.2,1
			c-1.4,0.4-2.8,1-4,1.8c0,0,0,0,0,0c-1.1-0.8-2.3-1.5-3.6-1.9c-0.1-0.3-0.1-0.7-0.2-1c0-0.1,0-0.3,0-0.4c0-0.3,0-0.7,0-1
			c0-0.1,0-0.3,0-0.4C31.8,28.2,31.9,27.8,31.9,27.4z M41,26c0.9-0.5,1.9-0.8,2.9-1.1c0.2,0,1.1-0.2,5.3-0.8l-3.1,7.3
			c-1-0.2-2-0.4-3.1-0.4c-0.7,0-1.4,0.1-2.1,0.2c0.1-0.3,0.1-0.7,0.2-1c0-0.1,0-0.2,0-0.2c0-0.2,0-0.4,0-0.6c0-0.2,0-0.5,0-0.7
			c0-0.2,0-0.4,0-0.5c0-0.3,0-0.6-0.1-0.9c0-0.2-0.1-0.3-0.1-0.5C41,26.5,41,26.3,41,26z M46.1,40.4l-0.3,0.1
			c-0.5,0.1-1,0.2-1.5,0.2c0,0-0.1,0-0.2,0c-0.4,0-0.8,0-1.2,0c-0.1,0-0.2,0-0.3,0c-0.3,0-0.7-0.1-1-0.1c-0.2,0-0.3,0-0.5-0.1
			c-0.3-0.1-0.6-0.1-0.9-0.2c0,0,0,0-0.1,0c-0.4-1.3-0.9-2.6-1.7-3.8c0,0,0.1-0.1,0.1-0.1c0.9-1.1,1.5-2.4,2-3.8
			c0.9-0.2,1.7-0.3,2.6-0.2c0.1,0,0.2,0,0.4,0c0.9,0,1.8,0.2,2.6,0.4l0,0c1.1,0.3,2.2,0.8,3.2,1.4c0.1,0.1,0.9,0.6,4.3,3.2
			L46.1,40.4z M25.1,39.9c-1.1-0.3-2.2-0.8-3.3-1.5c-0.1-0.1-0.9-0.6-4.3-3.2l7.6-3.1l0.4-0.1c0.5-0.1,1-0.2,1.5-0.2
			c0,0,0.1,0,0.1,0c0.4,0,0.8,0,1.2,0c0.1,0,0.2,0,0.3,0c0.3,0,0.7,0.1,1,0.1c0.2,0,0.3,0,0.5,0.1c0.3,0.1,0.5,0.1,0.8,0.2
			c0.1,0,0.1,0,0.2,0c0.3,1.3,0.9,2.6,1.7,3.7c0,0.1-0.1,0.1-0.1,0.2c-0.9,1.2-1.5,2.4-2,3.8c-0.9,0.2-1.8,0.3-2.6,0.3
			c-0.1,0-0.2,0-0.3,0C26.9,40.2,26,40.1,25.1,39.9z M35.6,37.7c-0.3-0.3-0.5-0.5-0.8-0.8c-0.1-0.1-0.2-0.2-0.3-0.3
			c-0.1-0.1-0.2-0.3-0.3-0.4c0.3-0.3,0.5-0.6,0.8-0.8c0,0,0.1-0.1,0.1-0.1c0.2-0.1,0.3-0.3,0.5-0.4c0.5,0.5,1,1,1.4,1.5
			c-0.2,0.2-0.4,0.4-0.6,0.6C36.2,37.2,35.9,37.5,35.6,37.7z M37.8,35.5c-0.4-0.5-0.8-0.9-1.3-1.3c0.9-0.6,1.8-1,2.8-1.3
			C38.9,33.8,38.4,34.7,37.8,35.5z M33.5,35.2c-0.5-0.8-0.9-1.6-1.1-2.4c0.8,0.3,1.6,0.8,2.3,1.3C34.3,34.4,33.9,34.8,33.5,35.2z
			 M33.5,37c0.1,0.1,0.1,0.2,0.2,0.3c0.3,0.4,0.7,0.8,1.1,1.1c-0.9,0.6-1.8,1-2.7,1.3C32.4,38.7,32.8,37.8,33.5,37z M37.2,37.8
			c0.2-0.2,0.4-0.4,0.5-0.6c0.5,0.8,0.9,1.6,1.2,2.5c-0.8-0.4-1.6-0.8-2.4-1.3C36.7,38.2,37,38,37.2,37.8z"/>
	</g>
	<g>
		<path class="st0" d="M122.7,55.6h9.9v1.4h-8.4V62h7.5v1.4h-7.5v6h-1.6V55.6z"/>
		<path class="st0" d="M134.8,62.6L134.8,62.6c0-3.8,2.9-7.2,7.1-7.2c4.2,0,7,3.3,7,7.1c0,0,0,0,0,0c0,3.8-2.9,7.1-7.1,7.1
			C137.6,69.7,134.8,66.4,134.8,62.6z M147.3,62.6L147.3,62.6c0-3.2-2.3-5.7-5.5-5.7c-3.2,0-5.4,2.5-5.4,5.7v0
			c0,3.1,2.3,5.7,5.5,5.7C145,68.3,147.3,65.7,147.3,62.6z"/>
		<path class="st0" d="M152.2,55.6h5.9c1.7,0,3.1,0.5,3.9,1.4c0.7,0.7,1.1,1.6,1.1,2.7v0c0,2.3-1.6,3.6-3.8,4l4.2,5.6h-1.9l-4-5.4h0
			h-3.9v5.4h-1.6V55.6z M158,62.7c2.1,0,3.6-1.1,3.6-2.8v0c0-1.7-1.3-2.7-3.5-2.7h-4.3v5.6H158z"/>
		<path class="st0" d="M171.8,62.6L171.8,62.6c0-3.9,2.9-7.2,7-7.2c2.5,0,4,0.9,5.4,2.2l-1.1,1.1c-1.2-1.1-2.5-1.9-4.3-1.9
			c-3.1,0-5.3,2.5-5.3,5.7v0c0,3.2,2.3,5.7,5.3,5.7c1.9,0,3.1-0.7,4.5-2l1,1c-1.4,1.5-3,2.4-5.5,2.4
			C174.7,69.7,171.8,66.6,171.8,62.6z"/>
		<path class="st0" d="M185.9,62.6L185.9,62.6c0-3.8,2.9-7.2,7.1-7.2c4.2,0,7,3.3,7,7.1c0,0,0,0,0,0c0,3.8-2.9,7.1-7.1,7.1
			C188.7,69.7,185.9,66.4,185.9,62.6z M198.4,62.6L198.4,62.6c0-3.2-2.3-5.7-5.4-5.7c-3.2,0-5.4,2.5-5.4,5.7v0
			c0,3.1,2.3,5.7,5.4,5.7C196.2,68.3,198.4,65.7,198.4,62.6z"/>
		<path class="st0" d="M203.3,55.6h1.6l5,7.5l5-7.5h1.6v13.8H215V58.3l-5,7.4h-0.1l-5-7.4v11.2h-1.5V55.6z"/>
		<path class="st0" d="M220.4,55.6h5.2c3.1,0,5.2,1.7,5.2,4.4v0c0,3-2.5,4.5-5.4,4.5H222v4.9h-1.6V55.6z M225.4,63.2
			c2.3,0,3.8-1.2,3.8-3v0c0-2-1.5-3-3.7-3H222v6.1H225.4z"/>
		<path class="st0" d="M237.4,55.5h1.5l6.3,13.9h-1.7l-1.6-3.7h-7.5l-1.6,3.7h-1.6L237.4,55.5z M241.2,64.4l-3.1-7.1l-3.2,7.1H241.2
			z"/>
		<path class="st0" d="M246.7,67.5l1-1.1c1.4,1.3,2.8,2,4.7,2c1.9,0,3.1-1,3.1-2.3v0c0-1.3-0.7-2-3.6-2.6c-3.2-0.7-4.6-1.7-4.6-4v0
			c0-2.2,1.9-3.8,4.5-3.8c2,0,3.5,0.6,4.9,1.7l-0.9,1.2c-1.3-1-2.6-1.5-4-1.5c-1.8,0-2.9,1-2.9,2.2v0c0,1.3,0.7,2,3.8,2.7
			c3.1,0.7,4.5,1.8,4.5,3.9v0c0,2.4-2,3.9-4.7,3.9C250.1,69.7,248.3,68.9,246.7,67.5z"/>
		<path class="st0" d="M259.1,67.5l1-1.1c1.4,1.3,2.8,2,4.7,2c1.9,0,3.1-1,3.1-2.3v0c0-1.3-0.7-2-3.6-2.6c-3.2-0.7-4.6-1.7-4.6-4v0
			c0-2.2,1.9-3.8,4.5-3.8c2,0,3.5,0.6,4.9,1.7l-0.9,1.2c-1.3-1-2.6-1.5-4-1.5c-1.8,0-2.9,1-2.9,2.2v0c0,1.3,0.7,2,3.8,2.7
			c3.1,0.7,4.5,1.8,4.5,3.9v0c0,2.4-2,3.9-4.7,3.9C262.5,69.7,260.7,68.9,259.1,67.5z"/>
		<path class="st0" d="M272.8,55.6h1.6v13.8h-1.6V55.6z"/>
		<path class="st0" d="M277.8,62.6L277.8,62.6c0-3.8,2.9-7.2,7.1-7.2c4.2,0,7,3.3,7,7.1c0,0,0,0,0,0c0,3.8-2.9,7.1-7.1,7.1
			C280.6,69.7,277.8,66.4,277.8,62.6z M290.2,62.6L290.2,62.6c0-3.2-2.3-5.7-5.4-5.7c-3.2,0-5.4,2.5-5.4,5.7v0
			c0,3.1,2.3,5.7,5.5,5.7C288,68.3,290.2,65.7,290.2,62.6z"/>
		<path class="st0" d="M295.1,55.6h1.5l8.7,11.1V55.6h1.5v13.8h-1.2l-8.9-11.3v11.3h-1.5V55.6z"/>
		<path class="st0" d="M315.9,55.5h1.5l6.3,13.9h-1.7l-1.6-3.7h-7.5l-1.6,3.7h-1.6L315.9,55.5z M319.7,64.4l-3.1-7.1l-3.2,7.1H319.7
			z"/>
		<path class="st0" d="M328.2,57.1h-4.6v-1.4h10.9v1.4h-4.6v12.4h-1.6V57.1z"/>
		<path class="st0" d="M337.3,55.6h10v1.4h-8.4v4.7h7.5v1.4h-7.5V68h8.5v1.4h-10.1V55.6z"/>
		<path class="st0" d="M356.5,55.6h1.6v6.1h8v-6.1h1.6v13.8H366v-6.2h-8v6.2h-1.6V55.6z"/>
		<path class="st0" d="M371.5,55.6h10v1.4H373v4.7h7.5v1.4H373V68h8.5v1.4h-10.1V55.6z"/>
		<path class="st0" d="M389.8,55.5h1.5l6.3,13.9h-1.7l-1.6-3.7h-7.5l-1.6,3.7h-1.6L389.8,55.5z M393.7,64.4l-3.1-7.1l-3.2,7.1H393.7
			z"/>
		<path class="st0" d="M400.3,55.6h1.6V68h7.8v1.4h-9.3V55.6z"/>
		<path class="st0" d="M414.2,57.1h-4.6v-1.4h10.9v1.4h-4.6v12.4h-1.6V57.1z"/>
		<path class="st0" d="M423.3,55.6h1.6v6.1h8v-6.1h1.6v13.8h-1.6v-6.2h-8v6.2h-1.6V55.6z"/>
		<path class="st0" d="M437.7,62.6L437.7,62.6c0-3.9,2.9-7.2,7-7.2c2.5,0,4,0.9,5.4,2.2l-1.1,1.1c-1.2-1.1-2.5-1.9-4.3-1.9
			c-3.1,0-5.3,2.5-5.3,5.7v0c0,3.2,2.3,5.7,5.3,5.7c1.9,0,3.1-0.7,4.5-2l1,1c-1.4,1.5-3,2.4-5.5,2.4
			C440.7,69.7,437.7,66.6,437.7,62.6z"/>
		<path class="st0" d="M458,55.5h1.5l6.3,13.9h-1.7l-1.6-3.7h-7.5l-1.6,3.7h-1.6L458,55.5z M461.9,64.4l-3.1-7.1l-3.2,7.1H461.9z"/>
		<path class="st0" d="M468.5,55.6h5.9c1.7,0,3.1,0.5,3.9,1.4c0.7,0.7,1.1,1.6,1.1,2.7v0c0,2.3-1.6,3.6-3.8,4l4.2,5.6H478l-4-5.4h0
			H470v5.4h-1.6V55.6z M474.3,62.7c2.1,0,3.6-1.1,3.6-2.8v0c0-1.7-1.3-2.7-3.5-2.7H470v5.6H474.3z"/>
		<path class="st0" d="M482.8,55.6h10v1.4h-8.4v4.7h7.5v1.4h-7.5V68h8.5v1.4h-10.1V55.6z"/>
	</g>
	<g>
		<g>
			<path class="st0" d="M100.3,20c-0.1,0-0.2,0.2-0.2,0.3c-0.1,2.8-0.1,8.1,0,11.1c0,2.4,0.1,3.6,0.4,4.3c0.5,1.6,2.1,2.4,3.6,2.4
				c1.7,0,2.5-0.3,3.7-1c0.1,0.2-0.1,1.6-0.2,1.9c-1.5,1.9-4,2.7-6,2.7c-2.4,0-4.3-1-5.3-2.9c-0.8-1.5-0.8-3-0.8-6.9
				c0-3.4,0.1-8.9,0.1-11.3c0-0.2-0.1-0.5-0.4-0.5l-3.3-0.2c-0.1-0.4,0.3-1.7,0.5-2c0.8-0.1,2.4-0.4,2.8-0.7c0.1,0,0.2-0.2,0.2-0.4
				v-5.1c1-0.5,3.2-2,3.9-2.8c0.3-0.1,0.9-0.1,1.1-0.1c-0.1,1-0.3,3.7-0.3,8c0,0.1,0.1,0.4,0.2,0.4c2.9,0,6.5-0.2,7.4-0.3
				c-0.2,0.8-0.5,2.4-0.5,3.3C105.6,20.1,102.5,20,100.3,20z"/>
			<path class="st0" d="M110,2c3.6-0.3,7.2-1.1,9.1-2c0.2,0.1,0.4,0.7,0.4,0.8c-0.5,1-0.6,1.6-0.7,5.7c-0.1,3.7-0.1,11.6-0.1,13.3
				c0,0.1,0.2,0.1,0.3,0.1c3.1-2.4,6-3.6,8.2-3.6c4.8,0,7.5,3.7,7.5,9.7c0,3.3,0,8.6,0.1,11.2c0,0.7,0.3,1.2,0.8,1.5
				c0.8,0.5,1.8,0.5,3,0.7c0.2,0.2,0.1,1.6-0.2,1.8c-1,0-3.4-0.2-6-0.2c-2.4,0-4.9,0.1-5.7,0.2c-0.2-0.2-0.2-1.5-0.1-1.8
				c1-0.1,1.8-0.2,2.4-0.4c0.9-0.3,1.1-0.7,1.2-3.1c0.1-3,0.2-9-0.2-11.8c-0.3-1.6-1.7-4.3-5.6-4.3c-1.5,0-3.3,0.6-4.7,1.6
				c-0.5,0.4-0.7,1.1-0.7,1.4c0,4.2,0,11.7,0.1,13.4c0.1,1.9,0.3,2.4,1.6,2.8c0.7,0.1,1.2,0.2,2.3,0.4c0.3,0.2,0.2,1.5-0.1,1.8
				c-0.8,0-2.8-0.2-6.3-0.2c-3.1,0-4.8,0.2-5.8,0.2c-0.2-0.2-0.2-1.5,0-1.8c1-0.1,1.6-0.2,2.2-0.4c1-0.4,1.3-0.9,1.3-2.6
				c0.1-1.4,0.1-8.6,0.1-10c0-14.6,0-18.5-0.2-20.7c-0.1-0.9-0.3-1.4-1.1-1.6c-0.7-0.2-1.8-0.3-2.9-0.4C109.7,3.4,109.8,2.1,110,2z"
				/>
			<path class="st0" d="M192.5,23.2c-0.2,0.2-1.4,0.3-1.6,0.1c-0.4-2.6-0.8-3.9-2.1-4.6c-0.8-0.5-1.8-0.7-3-0.7
				c-2.1,0-3.7,1.3-3.7,3.5c0,2.1,1,3.3,5.6,5.4c5,2.3,6.3,4.3,6.3,7.2c0,4.3-4,7.4-9.5,7.4c-2.2,0-5-0.5-6.3-1.1
				c-0.4-1.4-1-5.3-1-6.6c0.2-0.2,1.4-0.7,1.8-0.5c0.8,3.1,2,4.7,3.6,5.6c0.9,0.5,2.1,0.7,3,0.7c2.5,0,4-1.3,4-3.4
				c0-2.2-1.1-3.3-4.9-5.1c-4.9-2.4-6.6-4.6-6.6-7.8c0-3.7,3-7.1,8.9-7.1c1.4,0,2.9,0.2,3.9,0.4c1,0.2,1.9,0.3,2.4,0.4
				C192.8,18.8,192.7,20.8,192.5,23.2z"/>
			<path class="st0" d="M209.4,41.6c-3.9,0-6.6-1.4-8.6-4.2c-1.5-2.2-2.4-5.1-2.4-8.1c0-4.5,2.1-8.3,6.1-10.7
				c2.5-1.6,5.8-2.5,7.7-2.5c2.4,0,3.8,0.4,5,0.9c0.8,0.4,1.6,1,1.8,1.6c0,0.2-0.1,0.7-0.1,1c-0.4,0.9-1.5,2.2-2.1,2.5
				c-0.1,0.1-0.5,0.1-0.6,0c-1.3-1.3-3.6-3.2-6.6-3.2c-4.5,0-6.5,4-6.5,8.2c0,2.8,0.7,5.6,2.2,7.4c1.8,2.2,4,3.1,6.8,3.1
				c2.1,0,4.6-0.8,6.9-2.9c0.1,0,0.3,0.2,0.3,0.4c0,0.5-0.2,1.6-0.3,1.8C216,40.5,211.9,41.6,209.4,41.6z"/>
			<path class="st0" d="M220.8,2c3.6-0.3,7.2-1.1,9.1-2c0.2,0.1,0.4,0.7,0.4,0.8c-0.5,1-0.6,1.6-0.7,5.7c-0.1,3.7-0.1,11.6-0.1,13.3
				c0,0.1,0.2,0.1,0.3,0.1c3.1-2.4,6-3.6,8.2-3.6c4.8,0,7.5,3.7,7.5,9.7c0,3.3,0,8.6,0.1,11.2c0,0.7,0.3,1.2,0.8,1.5
				c0.8,0.5,1.8,0.5,3,0.7c0.2,0.2,0.1,1.6-0.2,1.8c-1,0-3.4-0.2-6-0.2c-2.4,0-4.9,0.1-5.7,0.2c-0.2-0.2-0.2-1.5-0.1-1.8
				c1-0.1,1.8-0.2,2.4-0.4c0.9-0.3,1.1-0.7,1.2-3.1c0.1-3,0.2-9-0.2-11.8c-0.3-1.6-1.7-4.3-5.6-4.3c-1.5,0-3.3,0.6-4.7,1.6
				c-0.5,0.4-0.7,1.1-0.7,1.4c0,4.2,0,11.7,0.1,13.4c0.1,1.9,0.3,2.4,1.6,2.8c0.7,0.1,1.2,0.2,2.3,0.4c0.3,0.2,0.2,1.5-0.1,1.8
				c-0.8,0-2.8-0.2-6.3-0.2c-3.1,0-4.8,0.2-5.8,0.2c-0.2-0.2-0.2-1.5,0-1.8c1-0.1,1.6-0.2,2.2-0.4c1-0.4,1.3-0.9,1.3-2.6
				c0.1-1.4,0.1-8.6,0.1-10c0-14.6,0-18.5-0.2-20.7c-0.1-0.9-0.3-1.4-1.1-1.6c-0.7-0.2-1.8-0.3-2.9-0.4C220.5,3.4,220.5,2.1,220.8,2
				z"/>
			<path class="st0" d="M248,16.9c1,0,3,0.2,6,0.2c2.1,0,5-0.1,6.2-0.2c0.2,0.2,0.2,1.4,0.1,1.8c-0.8,0.1-1.9,0.4-2.4,0.5
				c-0.7,0.2-0.7,0.7-0.6,1.1c0.5,2.4,3.4,12,4.2,14.2c0.1,0,0.2,0.1,0.2-0.1c1.6-3.9,4.8-12.3,5.8-16.1c0.7,0.1,2.4,0.1,3-0.1
				c0.3,1.3,0.8,2.8,1.6,4.9c1.5,4.4,3.8,10.4,4.2,11.5c0.1,0,0.2,0.1,0.2,0c1.1-2.8,3.9-11.2,4.5-13.6c0.1-1,0.1-1.5-1-1.9
				c-0.7-0.2-1.5-0.4-2.8-0.5c-0.1-0.4,0-1.5,0.2-1.8c0.8,0,3.4,0.2,5.4,0.2c2.5,0,4.1-0.1,5.2-0.2c0.2,0.3,0.2,1.4,0,1.8
				c-0.8,0.1-1.1,0.2-1.6,0.4c-1.6,0.5-2.1,1.3-2.8,2.8c-1.4,3.5-5.8,15.6-7.1,19.4c-0.7-0.1-2.3-0.1-3,0.1c-1.1-3.7-5-14.2-5.8-16
				c-0.1-0.1-0.2-0.1-0.3,0.1c-1.2,3.3-4.6,11.5-6,15.9c-0.7-0.1-2.2-0.1-2.9,0c-1.3-4.8-4.3-14.8-5.7-18.6
				c-0.9-2.5-1.3-3.2-2.6-3.6c-0.7-0.2-1.5-0.3-2.3-0.4C247.7,18.3,247.8,17.1,248,16.9z"/>
			<path class="st0" d="M301.1,21.7c-1-1.5-2.8-2.3-4.6-2.3c-1.3,0-2.1,0.4-2.4,0.6c-0.7,0.5-1.8,2.4-2.5,4.3
				c-0.2,0.2-1.8-0.7-1.8-1.2c0.1-0.8,1-3.2,1.4-3.6c2.6-1.8,6.4-3.3,7.9-3.3c2.7,0,4.6,1.2,6,3.2c1,1.7,1.4,3.8,1.4,6
				c0,3.1-0.2,7.8-0.2,10.2c0,1.3,0.5,2.4,2.3,2.4c1,0,1.4-0.1,2.1-0.3c0.1,0.2-0.1,1.6-0.2,1.8c-1.4,1.6-3.6,2.1-4.9,2.1
				c-1.7,0-2.7-0.7-3.1-1.6c-0.2-0.4-0.4-1-0.5-1.5c0-0.1-0.2-0.1-0.2-0.1c-3.1,1.9-5.6,3.1-7.2,3.1c-1.1,0-2.4-0.6-3.3-1.5
				c-1.2-1.3-2.1-3.2-2.1-5.3c0-1.1,0.8-3,1.1-3.4c2-1.1,9.1-2.8,11.4-3.9c0.1-0.1,0.4-0.4,0.4-0.6c0.1-0.5,0.1-1.2,0.1-1.6
				C302,24,301.8,22.7,301.1,21.7z M301.6,29.3c-2.2,0.8-6.1,2-7.2,2.8c-0.2,0.1-0.6,1.3-0.6,1.9c0,2.4,1.6,4.1,4.2,4.1
				c0.8,0,2.1-0.3,3.1-1c0.4-0.2,0.6-0.7,0.7-1.4c0.1-1.3,0.1-5.2,0.1-6.2C301.9,29.5,301.7,29.2,301.6,29.3z"/>
			<path class="st0" d="M330.5,17.6c0.1,0.2,0.1,0.7,0,1c-0.1,0.7-1.3,3.1-1.9,3.8c-0.1,0.1-0.4,0.2-0.5,0.2c-1.1-1-2.5-1.9-3.9-1.9
				c-1.2,0-2.4,1.3-3.2,2.5c-0.2,0.4-0.5,1.3-0.5,2.1c0,4.1,0.1,10.3,0.1,11.5c0.1,1,0.4,1.6,1.3,1.9c1.1,0.3,2.5,0.5,3.8,0.6
				c0.1,0.3,0.1,1.5-0.2,1.8c-0.7,0-4.6-0.2-7.1-0.2c-1.9,0-5,0.1-6,0.2c-0.2-0.2-0.2-1.5,0-1.8c0.7-0.1,1.7-0.2,2.4-0.5
				c0.6-0.2,1-0.6,1.1-1.7c0.1-1,0.2-6,0.2-10.1c0-2.2,0-4-0.1-4.8c-0.1-0.8-0.6-1.6-3.3-2.5c0-0.3,0.1-1.2,0.3-1.3
				c2.2-0.2,5.7-1.3,7.4-2.2c0.1,0,0.3,0.1,0.3,0.2c-0.1,0.8-0.1,3.5-0.1,4.6c0,0.2,0.2,0.2,0.3,0.1c1.1-1.4,2.4-2.8,3.8-3.8
				c1-0.7,1.9-1.1,3.1-1.1C328.8,16.2,330,16.7,330.5,17.6z"/>
			<path class="st0" d="M341.2,20c-0.1,0-0.2,0.2-0.2,0.3c-0.1,2.8-0.1,8.1,0,11.1c0,2.4,0.1,3.6,0.4,4.3c0.5,1.6,2.1,2.4,3.6,2.4
				c1.7,0,2.5-0.3,3.7-1c0.1,0.2-0.1,1.6-0.2,1.9c-1.5,1.9-4,2.7-6,2.7c-2.4,0-4.3-1-5.3-2.9c-0.8-1.5-0.8-3-0.8-6.9
				c0-3.4,0.1-8.9,0.1-11.3c0-0.2-0.1-0.5-0.4-0.5l-3.3-0.2c-0.1-0.4,0.3-1.7,0.5-2c0.8-0.1,2.4-0.4,2.8-0.7c0.1,0,0.2-0.2,0.2-0.4
				v-5.1c1-0.5,3.2-2,3.9-2.8c0.3-0.1,0.9-0.1,1.1-0.1c-0.1,1-0.3,3.7-0.3,8c0,0.1,0.1,0.4,0.2,0.4c2.9,0,6.5-0.2,7.4-0.3
				c-0.2,0.8-0.5,2.4-0.5,3.3C346.6,20.1,343.5,20,341.2,20z"/>
			<path class="st0" d="M370.2,17.9c-2,4-9,15.1-12.1,20.2c-0.1,0.2,0,0.4,0.1,0.4c1.7,0.4,6.5,0.5,7.8,0.5c0.8,0,2.5-1.4,4.3-5.6
				c0.2-0.2,1.4-0.4,1.7-0.4c0,0,0.2,0.1,0.2,0.2c-0.4,2.4-1.6,5.6-2.1,6.8c-0.4,0.8-1.1,1.3-1.8,1.3c-4.1,0-14.2-0.4-16.5-0.4
				c-0.1-0.1-0.3-0.9-0.3-1.1c3.2-4.9,10-15.2,12.7-20.4c0.1-0.1,0-0.3-0.1-0.3c-1.8,0-6.1,0-7.3,0.2c-1.4,0.1-2.4,0.6-4.2,5.3
				c-0.2,0.1-1.4-0.1-1.8-0.5c0.6-2.5,1.2-5.7,1.4-7.6c1,0.4,2.6,0.6,4.2,0.6h8.4c2.6,0,4.2-0.1,5.1-0.1
				C370.2,17,370.2,17.7,370.2,17.9z"/>
			<path class="st0" d="M397.8,41.6c-3.9,0-6.6-1.4-8.6-4.2c-1.5-2.2-2.4-5.1-2.4-8.1c0-4.5,2.1-8.3,6.1-10.7
				c2.5-1.6,5.8-2.5,7.7-2.5c2.4,0,3.8,0.4,5,0.9c0.8,0.4,1.6,1,1.8,1.6c0,0.2-0.1,0.7-0.1,1c-0.4,0.9-1.5,2.2-2.1,2.5
				c-0.1,0.1-0.5,0.1-0.6,0c-1.3-1.3-3.6-3.2-6.6-3.2c-4.5,0-6.5,4-6.5,8.2c0,2.8,0.7,5.6,2.2,7.4c1.8,2.2,4,3.1,6.8,3.1
				c2.1,0,4.6-0.8,6.9-2.9c0.1,0,0.3,0.2,0.3,0.4c0,0.5-0.2,1.6-0.3,1.8C404.5,40.5,400.4,41.6,397.8,41.6z"/>
			<path class="st0" d="M437.1,38.9c0.8-0.2,1.2-1.1,1.3-2.1c0.1-1.9,0.1-6.1,0.1-9.9c0-2.4-0.1-3.9-0.1-4.8
				c-0.2-0.8-0.9-1.4-3.1-2.3c-0.1-0.4,0.1-1.2,0.3-1.4c2.4-0.2,5.9-1.4,7.4-2.2c0.1,0.1,0.2,0.2,0.2,0.4c-0.1,0.7-0.1,2.4-0.1,3.4
				c0,0.1,0.2,0.2,0.3,0.1c3.1-2.6,6.1-3.9,8.2-3.9c2.6,0,4.5,1.1,5.8,3.1c1.1,1.8,1.6,4.2,1.6,7.1c0,3.4,0,8.8,0.1,10.9
				c0,0.5,0.2,1,0.6,1.1c1,0.5,1.8,0.6,3,0.8c0.2,0.3,0.1,1.4-0.2,1.8c-0.8,0-2.7-0.2-5.8-0.2c-2.8,0-4.5,0.1-6,0.2
				c-0.2-0.2-0.2-1.5,0-1.8c1.1-0.1,2.1-0.3,2.5-0.4c0.8-0.3,1-0.9,1.1-2.5c0.1-3.4,0.1-9.5-0.2-11.7c-0.1-1-0.5-2.6-1.7-3.6
				c-0.8-0.8-2-1.4-3.7-1.4s-3.6,0.7-5,1.9c-0.4,0.4-0.6,0.9-0.6,2.2c0,4.3,0,10.1,0.1,12.9c0.1,1.4,0.3,1.8,1.1,2.1
				c0.7,0.2,1.6,0.4,2.5,0.5c0.1,0.2,0.1,1.4-0.2,1.8c-0.9,0-2.6-0.2-5.9-0.2c-3,0-5.1,0.2-5.9,0.2c-0.2-0.2-0.2-1.5,0-1.8
				C435.7,39.2,436.3,39.1,437.1,38.9z"/>
			<path class="st0" d="M471.8,20c-0.1,0-0.2,0.2-0.2,0.3c-0.1,2.8-0.1,8.1,0,11.1c0,2.4,0.1,3.6,0.4,4.3c0.5,1.6,2.1,2.4,3.6,2.4
				c1.7,0,2.5-0.3,3.7-1c0.1,0.2-0.1,1.6-0.2,1.9c-1.5,1.9-4,2.7-6,2.7c-2.4,0-4.3-1-5.3-2.9c-0.8-1.5-0.8-3-0.8-6.9
				c0-3.4,0.1-8.9,0.1-11.3c0-0.2-0.1-0.5-0.4-0.5l-3.3-0.2c-0.1-0.4,0.3-1.7,0.5-2c0.8-0.1,2.4-0.4,2.8-0.7c0.1,0,0.2-0.2,0.2-0.4
				v-5.1c1-0.5,3.2-2,3.9-2.8c0.3-0.1,0.9-0.1,1.1-0.1c-0.1,1-0.3,3.7-0.3,8c0,0.1,0.1,0.4,0.2,0.4c2.9,0,6.5-0.2,7.4-0.3
				c-0.2,0.8-0.5,2.4-0.5,3.3C477.2,20.1,474.1,20,471.8,20z"/>
			<path class="st0" d="M523.7,17.6c0.1,0.2,0.1,0.7,0,1c-0.1,0.7-1.3,3.1-1.9,3.8c-0.1,0.1-0.4,0.2-0.5,0.2c-1.1-1-2.5-1.9-3.9-1.9
				c-1.2,0-2.4,1.3-3.2,2.5c-0.2,0.4-0.5,1.3-0.5,2.1c0,4.1,0.1,10.3,0.1,11.5c0.1,1,0.4,1.6,1.3,1.9c1.1,0.3,2.5,0.5,3.8,0.6
				c0.1,0.3,0.1,1.5-0.2,1.8c-0.7,0-4.6-0.2-7.1-0.2c-1.9,0-5,0.1-6,0.2c-0.2-0.2-0.2-1.5,0-1.8c0.7-0.1,1.7-0.2,2.4-0.5
				c0.6-0.2,1-0.6,1.1-1.7c0.1-1,0.2-6,0.2-10.1c0-2.2,0-4-0.1-4.8c-0.1-0.8-0.6-1.6-3.3-2.5c0-0.3,0.1-1.2,0.3-1.3
				c2.2-0.2,5.7-1.3,7.4-2.2c0.1,0,0.3,0.1,0.3,0.2c-0.1,0.8-0.1,3.5-0.1,4.6c0,0.2,0.2,0.2,0.3,0.1c1.1-1.4,2.4-2.8,3.8-3.8
				c1-0.7,1.9-1.1,3.1-1.1C522.1,16.2,523.3,16.7,523.7,17.6z"/>
		</g>
		<path class="st0" d="M160.6,35.5c-0.1-0.2-0.2-0.3-0.2-0.4c-2.2,1.8-4.5,2.5-6.9,2.5c-2.7,0-4.8-0.8-6.6-2.7
			c-1.4-1.6-2.4-4.1-2.5-6.2c0-0.3,0.1-0.6,0.4-0.7c4.7-0.1,12-0.5,15.1-1.2c0,0,0.5-0.4,0.5-0.9c-0.1-0.5-0.2-1.3-0.2-1.3
			c-0.5-3.4-2.6-8.6-8.5-8.6c-1.9,0-4.6,0.8-6.5,2c-3.1,2.1-5.3,5.6-5.3,10.9c0,3.4,1,7.1,3.4,9.6c1.8,1.9,4.2,2.9,7.4,2.9
			c2.8,0,6.9-1.5,9.6-4.5C160.5,36.9,160.7,35.9,160.6,35.5z M149.9,18.5c3.3,0,5.3,3.4,5.6,6.5c0,0.2-0.2,0.4-0.3,0.5
			c-1.2,0.2-8.3,0.5-10.3,0.4c-0.2,0-0.3-0.3-0.3-0.4C144.9,21.2,147,18.5,149.9,18.5z"/>
		<path class="st0" d="M431.6,35.5c-0.1-0.2-0.2-0.3-0.2-0.4c-2.2,1.8-4.5,2.5-6.9,2.5c-2.7,0-4.8-0.8-6.6-2.7
			c-1.4-1.6-2.4-4.1-2.5-6.2c0-0.3,0.1-0.6,0.4-0.7c4.7-0.1,12-0.5,15.1-1.2c0,0,0.5-0.4,0.5-0.9c-0.1-0.5-0.2-1.3-0.2-1.3
			c-0.5-3.4-2.6-8.6-8.5-8.6c-1.9,0-4.6,0.8-6.5,2c-3.1,2.1-5.3,5.6-5.3,10.9c0,3.4,1,7.1,3.4,9.6c1.8,1.9,4.2,2.9,7.4,2.9
			c2.8,0,6.9-1.5,9.6-4.5C431.4,36.9,431.7,35.9,431.6,35.5z M420.9,18.5c3.3,0,5.3,3.4,5.6,6.5c0,0.2-0.2,0.4-0.3,0.5
			c-1.2,0.2-8.3,0.5-10.3,0.4c-0.2,0-0.3-0.3-0.3-0.4C415.9,21.2,418,18.5,420.9,18.5z"/>
		<path class="st0" d="M502.5,35.5c-0.1-0.2-0.2-0.3-0.2-0.4c-2.2,1.8-4.5,2.5-6.9,2.5c-2.7,0-4.8-0.8-6.6-2.7
			c-1.4-1.6-2.4-4.1-2.5-6.2c0-0.3,0.1-0.6,0.4-0.7c4.7-0.1,12-0.5,15.1-1.2c0,0,0.5-0.4,0.5-0.9c-0.1-0.5-0.2-1.3-0.2-1.3
			c-0.5-3.4-2.6-8.6-8.5-8.6c-1.9,0-4.6,0.8-6.5,2c-3.1,2.1-5.3,5.6-5.3,10.9c0,3.4,1,7.1,3.4,9.6c1.8,1.9,4.2,2.9,7.4,2.9
			c2.8,0,6.9-1.5,9.6-4.5C502.3,36.9,502.5,35.9,502.5,35.5z M491.7,18.5c3.3,0,5.3,3.4,5.6,6.5c0,0.2-0.2,0.4-0.3,0.5
			c-1.2,0.2-8.3,0.5-10.3,0.4c-0.2,0-0.3-0.3-0.3-0.4C486.7,21.2,488.8,18.5,491.7,18.5z"/>
	</g>
</g>
</svg>
